<mxfile host="app.diagrams.net" agent="Mozilla/5.0 (Windows NT 10.0; Win64; x64) AppleWebKit/537.36 (KHTML, like Gecko) Chrome/137.0.0.0 Safari/537.36" version="27.1.4">
  <diagram name="Page-1" id="v7hAebeESWARkwTKOBSX">
    <mxGraphModel dx="2717" dy="1037" grid="1" gridSize="10" guides="1" tooltips="1" connect="1" arrows="1" fold="1" page="1" pageScale="1" pageWidth="850" pageHeight="1100" math="0" shadow="0">
      <root>
        <mxCell id="0" />
        <mxCell id="1" parent="0" />
        <mxCell id="oqtnP1Uwuth3o-QCh4wl-1" value="USER" style="rounded=0;whiteSpace=wrap;html=1;" vertex="1" parent="1">
          <mxGeometry x="-420" y="560" width="80" height="40" as="geometry" />
        </mxCell>
        <mxCell id="oqtnP1Uwuth3o-QCh4wl-2" value="CONTACT" style="rounded=0;whiteSpace=wrap;html=1;" vertex="1" parent="1">
          <mxGeometry x="260" y="570" width="80" height="40" as="geometry" />
        </mxCell>
        <mxCell id="oqtnP1Uwuth3o-QCh4wl-9" style="edgeStyle=none;curved=1;rounded=0;orthogonalLoop=1;jettySize=auto;html=1;entryX=0;entryY=0.25;entryDx=0;entryDy=0;fontSize=12;startSize=8;endSize=8;" edge="1" parent="1" source="oqtnP1Uwuth3o-QCh4wl-3" target="oqtnP1Uwuth3o-QCh4wl-1">
          <mxGeometry relative="1" as="geometry" />
        </mxCell>
        <mxCell id="oqtnP1Uwuth3o-QCh4wl-3" value="USERID" style="ellipse;whiteSpace=wrap;html=1;fontStyle=4" vertex="1" parent="1">
          <mxGeometry x="-620" y="480" width="80" height="50" as="geometry" />
        </mxCell>
        <mxCell id="oqtnP1Uwuth3o-QCh4wl-5" value="" style="edgeStyle=none;curved=1;rounded=0;orthogonalLoop=1;jettySize=auto;html=1;fontSize=12;startSize=8;endSize=8;entryX=0.25;entryY=0;entryDx=0;entryDy=0;" edge="1" parent="1" source="oqtnP1Uwuth3o-QCh4wl-4" target="oqtnP1Uwuth3o-QCh4wl-1">
          <mxGeometry relative="1" as="geometry" />
        </mxCell>
        <mxCell id="oqtnP1Uwuth3o-QCh4wl-4" value="USERNAME" style="ellipse;whiteSpace=wrap;html=1;" vertex="1" parent="1">
          <mxGeometry x="-570" y="410" width="80" height="50" as="geometry" />
        </mxCell>
        <mxCell id="oqtnP1Uwuth3o-QCh4wl-7" value="" style="edgeStyle=none;curved=1;rounded=0;orthogonalLoop=1;jettySize=auto;html=1;fontSize=12;startSize=8;endSize=8;entryX=0.5;entryY=0;entryDx=0;entryDy=0;" edge="1" parent="1" source="oqtnP1Uwuth3o-QCh4wl-6" target="oqtnP1Uwuth3o-QCh4wl-1">
          <mxGeometry relative="1" as="geometry" />
        </mxCell>
        <mxCell id="oqtnP1Uwuth3o-QCh4wl-6" value="USER_EMAIL" style="ellipse;whiteSpace=wrap;html=1;" vertex="1" parent="1">
          <mxGeometry x="-510" y="360" width="80" height="50" as="geometry" />
        </mxCell>
        <mxCell id="oqtnP1Uwuth3o-QCh4wl-11" style="edgeStyle=none;curved=1;rounded=0;orthogonalLoop=1;jettySize=auto;html=1;entryX=0.75;entryY=0;entryDx=0;entryDy=0;fontSize=12;startSize=8;endSize=8;" edge="1" parent="1" source="oqtnP1Uwuth3o-QCh4wl-10" target="oqtnP1Uwuth3o-QCh4wl-1">
          <mxGeometry relative="1" as="geometry" />
        </mxCell>
        <mxCell id="oqtnP1Uwuth3o-QCh4wl-10" value="USR_PASS" style="ellipse;whiteSpace=wrap;html=1;" vertex="1" parent="1">
          <mxGeometry x="-410" y="350" width="80" height="50" as="geometry" />
        </mxCell>
        <mxCell id="oqtnP1Uwuth3o-QCh4wl-13" style="edgeStyle=none;curved=1;rounded=0;orthogonalLoop=1;jettySize=auto;html=1;fontSize=12;startSize=8;endSize=8;" edge="1" parent="1" source="oqtnP1Uwuth3o-QCh4wl-12">
          <mxGeometry relative="1" as="geometry">
            <mxPoint x="-380" y="562" as="targetPoint" />
          </mxGeometry>
        </mxCell>
        <mxCell id="oqtnP1Uwuth3o-QCh4wl-12" value="USER-IMG" style="ellipse;whiteSpace=wrap;html=1;" vertex="1" parent="1">
          <mxGeometry x="-320" y="360" width="90" height="50" as="geometry" />
        </mxCell>
        <mxCell id="oqtnP1Uwuth3o-QCh4wl-17" style="edgeStyle=none;curved=1;rounded=0;orthogonalLoop=1;jettySize=auto;html=1;entryX=0;entryY=0.75;entryDx=0;entryDy=0;fontSize=12;startSize=8;endSize=8;" edge="1" parent="1" source="oqtnP1Uwuth3o-QCh4wl-14" target="oqtnP1Uwuth3o-QCh4wl-1">
          <mxGeometry relative="1" as="geometry" />
        </mxCell>
        <mxCell id="oqtnP1Uwuth3o-QCh4wl-14" value="ROLE" style="ellipse;whiteSpace=wrap;html=1;" vertex="1" parent="1">
          <mxGeometry x="-620" y="550" width="80" height="40" as="geometry" />
        </mxCell>
        <mxCell id="oqtnP1Uwuth3o-QCh4wl-16" style="edgeStyle=none;curved=1;rounded=0;orthogonalLoop=1;jettySize=auto;html=1;entryX=1;entryY=0.25;entryDx=0;entryDy=0;fontSize=12;startSize=8;endSize=8;" edge="1" parent="1" source="oqtnP1Uwuth3o-QCh4wl-15" target="oqtnP1Uwuth3o-QCh4wl-1">
          <mxGeometry relative="1" as="geometry" />
        </mxCell>
        <mxCell id="oqtnP1Uwuth3o-QCh4wl-15" value="DESCRIPTION" style="ellipse;whiteSpace=wrap;html=1;" vertex="1" parent="1">
          <mxGeometry x="-235" y="400" width="100" height="50" as="geometry" />
        </mxCell>
        <mxCell id="oqtnP1Uwuth3o-QCh4wl-21" style="edgeStyle=none;curved=1;rounded=0;orthogonalLoop=1;jettySize=auto;html=1;entryX=1;entryY=0.75;entryDx=0;entryDy=0;fontSize=12;startSize=8;endSize=8;" edge="1" parent="1" source="oqtnP1Uwuth3o-QCh4wl-19" target="oqtnP1Uwuth3o-QCh4wl-1">
          <mxGeometry relative="1" as="geometry" />
        </mxCell>
        <mxCell id="oqtnP1Uwuth3o-QCh4wl-19" value="&lt;u&gt;ENABLED&lt;/u&gt;" style="ellipse;whiteSpace=wrap;html=1;" vertex="1" parent="1">
          <mxGeometry x="-220" y="490" width="90" height="50" as="geometry" />
        </mxCell>
        <mxCell id="oqtnP1Uwuth3o-QCh4wl-23" style="edgeStyle=none;curved=1;rounded=0;orthogonalLoop=1;jettySize=auto;html=1;entryX=0;entryY=0.5;entryDx=0;entryDy=0;fontSize=12;startSize=8;endSize=8;" edge="1" parent="1" source="oqtnP1Uwuth3o-QCh4wl-22" target="oqtnP1Uwuth3o-QCh4wl-2">
          <mxGeometry relative="1" as="geometry" />
        </mxCell>
        <mxCell id="oqtnP1Uwuth3o-QCh4wl-22" value="&lt;u&gt;&lt;b&gt;CID&lt;/b&gt;&lt;/u&gt;" style="ellipse;whiteSpace=wrap;html=1;" vertex="1" parent="1">
          <mxGeometry x="110" y="450" width="80" height="40" as="geometry" />
        </mxCell>
        <mxCell id="oqtnP1Uwuth3o-QCh4wl-24" value="NICKNAME" style="ellipse;whiteSpace=wrap;html=1;" vertex="1" parent="1">
          <mxGeometry x="240" y="340" width="120" height="45" as="geometry" />
        </mxCell>
        <mxCell id="oqtnP1Uwuth3o-QCh4wl-29" style="edgeStyle=none;curved=1;rounded=0;orthogonalLoop=1;jettySize=auto;html=1;fontSize=12;startSize=8;endSize=8;entryX=0.25;entryY=0;entryDx=0;entryDy=0;" edge="1" parent="1" source="oqtnP1Uwuth3o-QCh4wl-25" target="oqtnP1Uwuth3o-QCh4wl-2">
          <mxGeometry relative="1" as="geometry" />
        </mxCell>
        <mxCell id="oqtnP1Uwuth3o-QCh4wl-25" value="NAME" style="ellipse;whiteSpace=wrap;html=1;" vertex="1" parent="1">
          <mxGeometry x="135" y="370" width="100" height="60" as="geometry" />
        </mxCell>
        <mxCell id="oqtnP1Uwuth3o-QCh4wl-26" value="WORK" style="ellipse;whiteSpace=wrap;html=1;" vertex="1" parent="1">
          <mxGeometry x="370" y="330" width="90" height="50" as="geometry" />
        </mxCell>
        <mxCell id="oqtnP1Uwuth3o-QCh4wl-33" style="edgeStyle=none;curved=1;rounded=0;orthogonalLoop=1;jettySize=auto;html=1;entryX=1;entryY=0;entryDx=0;entryDy=0;fontSize=12;startSize=8;endSize=8;" edge="1" parent="1" source="oqtnP1Uwuth3o-QCh4wl-27" target="oqtnP1Uwuth3o-QCh4wl-2">
          <mxGeometry relative="1" as="geometry" />
        </mxCell>
        <mxCell id="oqtnP1Uwuth3o-QCh4wl-27" value="EMAIL" style="ellipse;whiteSpace=wrap;html=1;" vertex="1" parent="1">
          <mxGeometry x="430" y="385" width="80" height="50" as="geometry" />
        </mxCell>
        <mxCell id="oqtnP1Uwuth3o-QCh4wl-32" style="edgeStyle=none;curved=1;rounded=0;orthogonalLoop=1;jettySize=auto;html=1;entryX=1;entryY=0.25;entryDx=0;entryDy=0;fontSize=12;startSize=8;endSize=8;" edge="1" parent="1" source="oqtnP1Uwuth3o-QCh4wl-28" target="oqtnP1Uwuth3o-QCh4wl-2">
          <mxGeometry relative="1" as="geometry" />
        </mxCell>
        <mxCell id="oqtnP1Uwuth3o-QCh4wl-28" value="IMAGE" style="ellipse;whiteSpace=wrap;html=1;" vertex="1" parent="1">
          <mxGeometry x="460" y="440" width="80" height="50" as="geometry" />
        </mxCell>
        <mxCell id="oqtnP1Uwuth3o-QCh4wl-30" style="edgeStyle=none;curved=1;rounded=0;orthogonalLoop=1;jettySize=auto;html=1;entryX=0.5;entryY=0;entryDx=0;entryDy=0;fontSize=12;startSize=8;endSize=8;" edge="1" parent="1" source="oqtnP1Uwuth3o-QCh4wl-24" target="oqtnP1Uwuth3o-QCh4wl-2">
          <mxGeometry relative="1" as="geometry" />
        </mxCell>
        <mxCell id="oqtnP1Uwuth3o-QCh4wl-31" style="edgeStyle=none;curved=1;rounded=0;orthogonalLoop=1;jettySize=auto;html=1;entryX=0.75;entryY=0;entryDx=0;entryDy=0;fontSize=12;startSize=8;endSize=8;" edge="1" parent="1" source="oqtnP1Uwuth3o-QCh4wl-26" target="oqtnP1Uwuth3o-QCh4wl-2">
          <mxGeometry relative="1" as="geometry" />
        </mxCell>
        <mxCell id="oqtnP1Uwuth3o-QCh4wl-35" style="edgeStyle=none;curved=1;rounded=0;orthogonalLoop=1;jettySize=auto;html=1;fontSize=12;startSize=8;endSize=8;entryX=0;entryY=0.75;entryDx=0;entryDy=0;" edge="1" parent="1" source="oqtnP1Uwuth3o-QCh4wl-34" target="oqtnP1Uwuth3o-QCh4wl-2">
          <mxGeometry relative="1" as="geometry">
            <mxPoint x="250" y="590" as="targetPoint" />
          </mxGeometry>
        </mxCell>
        <mxCell id="oqtnP1Uwuth3o-QCh4wl-34" value="DESCRIPTION" style="ellipse;whiteSpace=wrap;html=1;" vertex="1" parent="1">
          <mxGeometry x="40" y="520" width="120" height="50" as="geometry" />
        </mxCell>
        <mxCell id="oqtnP1Uwuth3o-QCh4wl-38" style="edgeStyle=none;curved=1;rounded=0;orthogonalLoop=1;jettySize=auto;html=1;entryX=1;entryY=0.5;entryDx=0;entryDy=0;fontSize=12;startSize=8;endSize=8;" edge="1" parent="1" source="oqtnP1Uwuth3o-QCh4wl-37" target="oqtnP1Uwuth3o-QCh4wl-2">
          <mxGeometry relative="1" as="geometry" />
        </mxCell>
        <mxCell id="oqtnP1Uwuth3o-QCh4wl-37" value="PHONE NO" style="ellipse;whiteSpace=wrap;html=1;" vertex="1" parent="1">
          <mxGeometry x="470" y="530" width="90" height="50" as="geometry" />
        </mxCell>
        <mxCell id="oqtnP1Uwuth3o-QCh4wl-41" style="edgeStyle=none;curved=1;rounded=0;orthogonalLoop=1;jettySize=auto;html=1;entryX=0.25;entryY=1;entryDx=0;entryDy=0;fontSize=12;startSize=8;endSize=8;" edge="1" parent="1" source="oqtnP1Uwuth3o-QCh4wl-39" target="oqtnP1Uwuth3o-QCh4wl-2">
          <mxGeometry relative="1" as="geometry" />
        </mxCell>
        <mxCell id="oqtnP1Uwuth3o-QCh4wl-39" value="HAS" style="rhombus;whiteSpace=wrap;html=1;" vertex="1" parent="1">
          <mxGeometry x="-120" y="720" width="80" height="80" as="geometry" />
        </mxCell>
        <mxCell id="oqtnP1Uwuth3o-QCh4wl-40" style="edgeStyle=none;curved=1;rounded=0;orthogonalLoop=1;jettySize=auto;html=1;entryX=0.192;entryY=0.392;entryDx=0;entryDy=0;entryPerimeter=0;fontSize=12;startSize=8;endSize=8;" edge="1" parent="1" source="oqtnP1Uwuth3o-QCh4wl-1" target="oqtnP1Uwuth3o-QCh4wl-39">
          <mxGeometry relative="1" as="geometry" />
        </mxCell>
        <mxCell id="oqtnP1Uwuth3o-QCh4wl-42" value="1 USER" style="rounded=0;whiteSpace=wrap;html=1;" vertex="1" parent="1">
          <mxGeometry x="-307.5" y="670" width="65" height="30" as="geometry" />
        </mxCell>
        <mxCell id="oqtnP1Uwuth3o-QCh4wl-43" value="MANY" style="rounded=0;whiteSpace=wrap;html=1;" vertex="1" parent="1">
          <mxGeometry x="80" y="700" width="80" height="30" as="geometry" />
        </mxCell>
      </root>
    </mxGraphModel>
  </diagram>
</mxfile>
